# xmcd
#
# Track frame offsets: 
#        150
#        16910
#        33935
#        54955
#        67535
#        81791
#        94241
#        109186
#        127412
#        140228
#        151116
#        164858
#        178330
#
# Disc length: 2489 seconds
#
# Revision: 1
# Processed by: cddbd v1.5.2PL0 Copyright (c) Steve Scherf et al.
# Submitted via: ExactAudioCopy v0.99pb5
#
DISCID=b009b70d
DTITLE=Candye Kane - Whole Lotta Love
DYEAR=2003
DGENRE=Blues
TTITLE0=Something's Got a Hold On Me
TTITLE1=Wrap Around Joy
TTITLE2=Put It All In There
TTITLE3=I Got a Secret
TTITLE4=Fit, Fat and Fine
TTITLE5=A Lion In My House
TTITLE6=What's That I Smell?
TTITLE7=Whole Lotta Love
TTITLE8=When the Hangover Strikes
TTITLE9=I'm Just a Sucker Who Believes In Love
TTITLE10=Going Back Where I Belong
TTITLE11=27 Times
TTITLE12=I'm Not Getting Older
EXTD=
EXTT0=
EXTT1=
EXTT2=
EXTT3=
EXTT4=
EXTT5=
EXTT6=
EXTT7=
EXTT8=
EXTT9=
EXTT10=
EXTT11=
EXTT12=
PLAYORDER=
